<?xml version="1.0" encoding="UTF-8"?>
<svg width="348px" height="372px" viewBox="0 0 348 372" version="1.1" xmlns="http://www.w3.org/2000/svg" xmlns:xlink="http://www.w3.org/1999/xlink">
    <!-- Generator: Sketch 52.1 (67048) - http://www.bohemiancoding.com/sketch -->
    <title>Untitled 4</title>
    <desc>Created with Sketch.</desc>
    <g id="Page-1" stroke="none" stroke-width="1" fill="none" fill-rule="evenodd">
        <path d="M171.50043,370.61239 C171.15723,369.99414 169.68176,365.52418 168.2216,360.67911 C158.96781,329.97319 141.78919,298.88002 113.02135,260.767 C102.21332,246.44803 92.04027,233.76836 64.53195,200.32989 C32.680663,161.61227 23.557087,149.20914 14.344127,132.10174 C8.903664,121.99946 3.265682,106.62811 1.41034,96.83915 C-0.443944,87.05587 -0.474174,71.07238 1.34585,62.74964 C8.749127,28.89549 38.820561,3.35493 74.7788,0.38086 C115.97167,-3.02615 151.01144,17.78323 169.42221,56.58758 L173.53337,65.25265 L176.62754,58.40729 C181.22517,48.23584 185.65291,41.3565 193.12646,32.77315 C212.15444,10.91951 234.80001,0.21452 262.08088,0.17707 C274.30086,0.16032 281.30318,1.17456 291.7163,4.46962 C307.29024,9.39773 319.01387,17.07492 329.45497,29.18276 C356.66486,60.73613 353.44315,103.72269 319.92253,156.37036 C312.10321,168.65146 297.9949,186.82236 278.59258,209.60159 C256.24949,235.83343 245.33235,249.16501 234.15526,263.86674 C207.36377,299.10678 189.34536,331.12695 179.43433,361.11016 C177.92242,365.68408 176.33841,369.94614 175.9143,370.58141 C174.92943,372.05665 172.31241,372.07502 171.50043,370.61239 Z" id="path30" fill="#FF0000"></path>
    </g>
</svg>